<svg xmlns="http://www.w3.org/2000/svg" viewBox="0 0 542.12 542.12"><title>logo_2</title><g id="Layer_2" data-name="Layer 2"><g id="Layer_1-2" data-name="Layer 1"><path d="M271.06,21a24.36,24.36,0,0,1,17.34,7.18L513.94,253.72a24.55,24.55,0,0,1,0,34.68L288.4,513.94a24.53,24.53,0,0,1-34.68,0L28.18,288.4a24.55,24.55,0,0,1,0-34.68L253.72,28.18A24.36,24.36,0,0,1,271.06,21m0-21a45.38,45.38,0,0,0-32.19,13.33L13.33,238.87a45.54,45.54,0,0,0,0,64.38L238.87,528.79a45.53,45.53,0,0,0,64.38,0L528.79,303.25a45.54,45.54,0,0,0,0-64.38L303.25,13.33A45.38,45.38,0,0,0,271.06,0Z" style="fill:#fff"/><path d="M127.71,214.92h35.76c39.76,0,67.19,18.92,67.19,54,0,33.33-27.43,54-67.19,54H127.71Zm19.44,89.23h18.06c26.39,0,43.92-12.84,43.92-35.24,0-23.78-17.53-35.24-43.92-35.24H147.15Z" style="fill:#fff"/><path d="M294.55,322.9H275.1V279.67l-38.89-64.75H259l25.87,43.4,25.86-43.4h22.75l-38.89,64.75Z" style="fill:#fff"/><path d="M356,214.92h19.45v89.23h46V322.9H356Z" style="fill:#fff"/></g></g></svg>